<svg width="19" height="19" viewBox="0 0 19 19" fill="none" xmlns="http://www.w3.org/2000/svg">
<path d="M6.72917 1.58333H3.95833L7.91667 8.70833H10.6875L6.72917 1.58333Z" fill="#E64A19"/>
<path d="M12.2708 1.58333L8.3125 8.70833H11.0833L15.0417 1.58333H12.2708Z" fill="#FF754C"/>
<path d="M10.6875 8.70833L10.6606 8.65647L10.6341 8.70833H10.6875Z" fill="#C93D18"/>
<path d="M9.03608 5.71503L7.67283 8.25747L8.11497 9.12078L9.49366 6.57439L9.03608 5.71503Z" fill="#C93D18"/>
<path d="M9.5 17.8125C12.1234 17.8125 14.25 15.6859 14.25 13.0625C14.25 10.4391 12.1234 8.3125 9.5 8.3125C6.87665 8.3125 4.75 10.4391 4.75 13.0625C4.75 15.6859 6.87665 17.8125 9.5 17.8125Z" fill="#AF8A77"/>
<path d="M9.5 9.10416C7.31461 9.10416 5.54167 10.8767 5.54167 13.0625C5.54167 15.2479 7.31461 17.0208 9.5 17.0208C11.6854 17.0208 13.4583 15.2479 13.4583 13.0625C13.4583 10.8767 11.6854 9.10416 9.5 9.10416ZM12.2708 11.875H11.4792V14.25H12.2708V15.0417H6.72917V14.25H7.52083V11.875H6.72917V11.0833H12.2708V11.875Z" fill="#CEB1A1"/>
<path d="M10.6875 11.875H9.89584V14.25H10.6875V11.875Z" fill="#CEB1A1"/>
<path d="M9.10417 11.875H8.3125V14.25H9.10417V11.875Z" fill="#CEB1A1"/>
</svg>
