<svg width="19" height="19" viewBox="0 0 19 19" fill="none" xmlns="http://www.w3.org/2000/svg">
<path d="M6.77865 1.58333H4.00781L7.96615 8.70833H10.737L6.77865 1.58333Z" fill="#E64A19"/>
<path d="M12.3203 1.58333L8.36198 8.70833H11.1328L15.0911 1.58333H12.3203Z" fill="#FF754C"/>
<path d="M10.737 8.70832L10.7101 8.65647L10.6835 8.70832H10.737Z" fill="#C93D18"/>
<path d="M9.08556 5.71503L7.72231 8.25747L8.16446 9.12078L9.54314 6.57438L9.08556 5.71503Z" fill="#C93D18"/>
<path d="M9.54948 17.8125C12.1728 17.8125 14.2995 15.6859 14.2995 13.0625C14.2995 10.4391 12.1728 8.3125 9.54948 8.3125C6.92612 8.3125 4.79948 10.4391 4.79948 13.0625C4.79948 15.6859 6.92612 17.8125 9.54948 17.8125Z" fill="#FFBA57"/>
<path d="M9.54948 9.10417C7.36409 9.10417 5.59115 10.8767 5.59115 13.0625C5.59115 15.2479 7.36409 17.0208 9.54948 17.0208C11.7349 17.0208 13.5078 15.2479 13.5078 13.0625C13.5078 10.8767 11.7349 9.10417 9.54948 9.10417ZM10.737 11.875H9.94531V14.25H10.737V15.0417H8.36198V14.25H9.15365V11.875H8.36198V11.0833H10.737V11.875Z" fill="#FFE082"/>
</svg>
