<svg width="19" height="19" viewBox="0 0 19 19" fill="none" xmlns="http://www.w3.org/2000/svg">
<path d="M6.72917 1.58333H3.95834L7.91667 8.70833H10.6875L6.72917 1.58333Z" fill="#E64A19"/>
<path d="M12.2708 1.58333L8.3125 8.70833H11.0833L15.0417 1.58333H12.2708Z" fill="#FF754C"/>
<path d="M10.6875 8.70833L10.6606 8.65648L10.6341 8.70833H10.6875Z" fill="#C93D18"/>
<path d="M9.03608 5.71504L7.67283 8.25748L8.11498 9.12079L9.49367 6.57439L9.03608 5.71504Z" fill="#C93D18"/>
<path d="M9.5 17.8125C12.1234 17.8125 14.25 15.6859 14.25 13.0625C14.25 10.4391 12.1234 8.3125 9.5 8.3125C6.87665 8.3125 4.75 10.4391 4.75 13.0625C4.75 15.6859 6.87665 17.8125 9.5 17.8125Z" fill="#9FA8DA"/>
<path d="M9.89583 11.875H9.10416V14.25H9.89583V11.875Z" fill="#C5CAE9"/>
<path d="M9.5 9.10416C7.3146 9.10416 5.54166 10.8767 5.54166 13.0625C5.54166 15.2479 7.3146 17.0208 9.5 17.0208C11.6854 17.0208 13.4583 15.2479 13.4583 13.0625C13.4583 10.8767 11.6854 9.10416 9.5 9.10416ZM11.4792 11.875H10.6875V14.25H11.4792V15.0417H7.52083V14.25H8.3125V11.875H7.52083V11.0833H11.4792V11.875Z" fill="#C5CAE9"/>
</svg>
